<?xml version="1.0" standalone="no"?><!DOCTYPE svg PUBLIC "-//W3C//DTD SVG 1.1//EN"
  "http://www.w3.org/Graphics/SVG/1.1/DTD/svg11.dtd">
<svg t="1564581799332" class="icon" viewBox="0 0 1024 1024" version="1.1"
  xmlns="http://www.w3.org/2000/svg"
  p-id="21965" width="200" height="200">
  <defs>
    <style type="text/css"></style>
  </defs>
  <path
    d="M860.3 205h-92.4v-18.4c0-11-8.8-20.1-20.3-20.1H639.9c-6-24.1-18.4-45.4-35.1-62.3-23.9-23.9-57.3-38.9-93.6-38.9-36.5 0-69.2 15-93.6 38.9-16.9 16.9-29.4 38.2-35.1 62.3H274.8c-11.5 0-20.1 9.1-20.1 20.1V205h-92.6c-18.6 0-33.4 15.5-33.4 33.7v688.8c0 18.6 14.8 33.7 33.4 33.7h698.2c18.6 0 33.7-15 33.7-33.7V238.6c0-18.1-15.1-33.6-33.7-33.6z m-414.1-72.1c16.5-16.9 39.6-27 64.9-27 25.3 0 48.5 10 65 27 9.5 9.3 17.2 20.8 21.9 33.7H424.8c4.5-13 11.9-24.4 21.4-33.7z m-151.3 74h432.6v63.8H294.9v-63.8z m532 686.9H196V272.5h58.7v18.2c0 11.5 8.6 20 20.1 20h472.7c11.5 0 20.3-8.6 20.3-20v-18.2h59v621.3h0.1zM314 560c-18.6 0-33.7 14.8-33.7 33.9 0 18.4 15.1 33.5 33.7 33.5s33.7-15.1 33.7-33.5c-0.1-19.1-15.1-33.9-33.7-33.9z m0 142.3c-18.6 0-33.7 14.8-33.7 33.4s15.1 33.4 33.7 33.4 33.7-14.8 33.7-33.4-15.1-33.4-33.7-33.4z m393-271.2H414.7c-11.5 0-20.3 9.3-20.3 20.3 0 11.2 8.8 20.3 20.3 20.3H707c11 0 20.1-9.1 20.1-20.3-0.1-11-9.1-20.3-20.1-20.3z m-393-13.4c-18.6 0-33.7 15.3-33.7 33.7 0 18.6 15.1 34.2 33.7 34.2s33.7-15.5 33.7-34.2c-0.1-18.4-15.1-33.7-33.7-33.7z m393 297.8H414.7c-11.5 0-20.3 9.3-20.3 20.3s8.8 20.1 20.3 20.1H707c11 0 20.1-9.1 20.1-20.1s-9.1-20.3-20.1-20.3z m0-142.1H414.7c-11.5 0-20.3 9.1-20.3 20.5 0 11 8.8 19.8 20.3 19.8H707c11 0 20.1-8.8 20.1-19.8-0.1-11.4-9.1-20.5-20.1-20.5z"
    p-id="21966"></path>
</svg>
